<svg width="107" height="26" viewBox="0 0 107 26" fill="#ffffff" xmlns="http://www.w3.org/2000/svg">
<g clip-path="url(#clip0_428_6013)">
<path d="M34.42 12.94C34.07 12.84 33.76 12.68 33.47 12.47C33.19 12.26 32.96 11.98 32.8 11.64C32.63 11.29 32.54 10.89 32.54 10.44V8.78C32.56 7.88 32.85 7.2 33.41 6.73C33.99 6.25 34.69 6 35.51 6C36.33 6 37.04 6.23 37.61 6.66V4.95C36.89 4.59 36.09 4.41 35.21 4.41C34.63 4.41 34.08 4.5 33.55 4.68C33.02 4.86 32.54 5.12 32.12 5.48C31.69 5.83 31.35 6.3 31.08 6.89C30.84 7.45 30.71 8.08 30.7 8.78V10.44C30.7 11.15 30.83 11.78 31.08 12.34C31.35 12.9 31.69 13.35 32.13 13.68C32.56 14.02 33.05 14.28 33.58 14.45C34.1 14.63 34.66 14.71 35.23 14.71C36.11 14.71 36.92 14.53 37.67 14.17V12.41C37.16 12.88 36.44 13.11 35.51 13.11C35.13 13.11 34.77 13.05 34.42 12.94Z" fill="#FFFFFF"/>
<path d="M44.58 8.74H40.81V4.59H39.01V9.56V14.55H40.81V10.37H44.58V14.55H46.38V9.56V4.59H44.58V8.74Z" fill="#FFFFFF"/>
<path d="M54.4 8.79L52.69 4.59H50.75L49.03 8.79L47.31 12.99H49.17L49.8 11.42H53.64L54.25 12.99H56.11L54.4 8.79ZM50.36 9.93L50.8 8.79L51.53 6.92C51.61 6.72 51.67 6.5 51.72 6.26C51.76 6.47 51.82 6.69 51.9 6.92L52.63 8.79L53.07 9.93H50.36Z" fill="#FFFFFF"/>
<path d="M64.33 7.82V8.79V12.99H66.13V8.79V4.59H64.46L61.7 8.79L61.6 8.95L61.49 8.79L58.72 4.59H57.05V8.79V12.99H58.85V8.79V7.8L59.5 8.79L61.07 11.19H62.11L63.69 8.79L64.33 7.82Z" fill="#FFFFFF"/>
<path d="M73.92 11.4H69.73V9.53H73.49V8.79V7.96H69.73V6.17H73.85V4.59H67.93V8.79V12.99H73.92V11.4Z" fill="#FFFFFF"/>
<path d="M77.15 8.79V4.59H75.35V8.79V12.99H81.26V11.37H77.15V8.79Z" fill="#FFFFFF"/>
<path d="M88.31 11.4H84.12V9.53H87.87V8.79V7.96H84.12V6.17H88.23V4.59H82.32V8.79V12.99H88.31V11.4Z" fill="#FFFFFF"/>
<path d="M96.98 5.75C96.61 5.34 96.14 5.02 95.57 4.78C94.99 4.54 94.34 4.42 93.62 4.42C92.9 4.42 92.26 4.54 91.68 4.78C91.1 5.02 90.63 5.34 90.27 5.75C89.9 6.16 89.63 6.62 89.44 7.14C89.25 7.66 89.16 8.21 89.16 8.79V10.36C89.16 10.93 89.25 11.48 89.44 12C89.63 12.52 89.9 12.99 90.27 13.39C90.63 13.8 91.1 14.12 91.68 14.37C92.26 14.6 92.9 14.72 93.62 14.72C94.34 14.72 94.99 14.6 95.57 14.37C96.14 14.12 96.61 13.8 96.98 13.39C97.34 12.99 97.62 12.52 97.81 12C97.99 11.48 98.09 10.93 98.09 10.36V8.79C98.09 8.21 97.99 7.66 97.81 7.14C97.62 6.62 97.34 6.16 96.98 5.75ZM96.24 10.36C96.24 11.13 96.01 11.78 95.56 12.29C95.1 12.8 94.45 13.06 93.62 13.06C92.79 13.06 92.14 12.8 91.68 12.29C91.22 11.78 90.99 11.13 90.99 10.36V8.79C90.99 8.01 91.22 7.37 91.68 6.86C92.14 6.34 92.78 6.09 93.62 6.09C94.46 6.09 95.1 6.34 95.56 6.86C96.01 7.37 96.24 8.01 96.24 8.79V10.36Z" fill="#FFFFFF"/>
<path d="M104.99 4.59V9.73C104.99 10.23 105 10.69 105.02 11.09L104.11 9.57L101.11 4.59H99.42V14.56H101.22V9.41C101.22 8.91 101.21 8.46 101.18 8.05L102.1 9.58L105.1 14.56H106.79V4.59H104.99Z" fill="#FFFFFF"/>
<path d="M53.24 18.03C52.97 17.89 52.68 17.76 52.37 17.63C52.06 17.51 51.77 17.41 51.5 17.33C51.23 17.25 51.01 17.14 50.83 17.01C50.65 16.88 50.56 16.72 50.56 16.55C50.56 16.15 50.92 15.95 51.64 15.93C52.44 15.92 53.13 16.11 53.69 16.52V15.19C53.09 14.85 52.37 14.68 51.54 14.68C50.84 14.68 50.27 14.84 49.8 15.16C49.34 15.48 49.11 15.95 49.11 16.56C49.11 16.93 49.2 17.25 49.38 17.52C49.56 17.79 49.78 18 50.05 18.14C50.32 18.28 50.61 18.42 50.92 18.54C51.23 18.66 51.52 18.77 51.79 18.85C52.06 18.94 52.28 19.05 52.46 19.19C52.64 19.33 52.73 19.5 52.73 19.69C52.73 20.11 52.32 20.33 51.49 20.33C50.66 20.33 49.85 20.1 49.14 19.63V20.99C49.85 21.39 50.67 21.59 51.6 21.59C51.97 21.59 52.3 21.56 52.6 21.49C52.9 21.42 53.17 21.32 53.42 21.17C53.67 21.02 53.86 20.82 53.99 20.56C54.13 20.3 54.19 19.99 54.19 19.63C54.19 19.27 54.1 18.94 53.92 18.66C53.74 18.38 53.51 18.17 53.25 18.03H53.24Z" fill="#FFFFFF"/>
<path d="M55.44 16.09H57.48V21.45H58.9V16.09H60.93V14.81H55.44V16.09Z" fill="#FFFFFF"/>
<path d="M67.14 18.88C67.14 19.83 66.64 20.3 65.64 20.3C64.64 20.3 64.15 19.83 64.15 18.88V14.81H62.73V18.95C62.73 19.33 62.78 19.67 62.89 19.97C63 20.27 63.14 20.52 63.33 20.72C63.51 20.92 63.73 21.08 63.98 21.21C64.23 21.34 64.5 21.44 64.77 21.49C65.05 21.54 65.33 21.57 65.64 21.57C65.95 21.57 66.23 21.54 66.51 21.49C66.78 21.44 67.05 21.34 67.3 21.21C67.55 21.08 67.77 20.91 67.95 20.72C68.13 20.52 68.28 20.27 68.39 19.97C68.5 19.67 68.55 19.33 68.55 18.95V14.81H67.14V18.88Z" fill="#FFFFFF"/>
<path d="M72.83 14.81H70.35V21.45H72.83C73.97 21.45 74.83 21.15 75.42 20.54C76.01 19.94 76.31 19.13 76.31 18.13C76.31 17.13 76.01 16.32 75.42 15.72C74.83 15.12 73.96 14.81 72.83 14.81ZM74.34 19.67C74 20.02 73.49 20.19 72.83 20.19H71.77V16.06H72.83C73.49 16.06 74 16.23 74.34 16.58C74.68 16.93 74.86 17.44 74.86 18.13C74.86 18.82 74.69 19.33 74.34 19.68V19.67Z" fill="#FFFFFF"/>
<path d="M79.53 14.81H78.11V21.45H79.53V14.81Z" fill="#FFFFFF"/>
<path d="M87.51 15.73C87.22 15.41 86.85 15.15 86.4 14.96C85.95 14.77 85.43 14.68 84.86 14.68C84.29 14.68 83.78 14.77 83.32 14.96C82.86 15.15 82.49 15.41 82.21 15.73C81.92 16.05 81.7 16.42 81.56 16.83C81.41 17.24 81.34 17.67 81.34 18.13C81.34 18.59 81.41 19.02 81.56 19.43C81.71 19.84 81.93 20.21 82.21 20.53C82.5 20.85 82.87 21.11 83.32 21.3C83.78 21.49 84.29 21.58 84.86 21.58C85.43 21.58 85.94 21.49 86.4 21.3C86.86 21.11 87.23 20.85 87.51 20.53C87.8 20.21 88.02 19.84 88.16 19.43C88.31 19.02 88.38 18.59 88.38 18.13C88.38 17.67 88.31 17.24 88.16 16.83C88.01 16.42 87.79 16.05 87.51 15.73ZM86.39 19.65C86.03 20.05 85.52 20.26 84.86 20.26C84.2 20.26 83.68 20.06 83.32 19.65C82.96 19.25 82.78 18.74 82.78 18.12C82.78 17.5 82.96 17 83.32 16.59C83.68 16.19 84.19 15.98 84.86 15.98C85.53 15.98 86.03 16.18 86.39 16.59C86.75 16.99 86.93 17.5 86.93 18.12C86.93 18.74 86.75 19.24 86.39 19.65Z" fill="#FFFFFF"/>
<path d="M18.02 7.08C17.33 7.08 16.77 7.64 16.77 8.33C16.77 9.02 17.33 9.58 18.02 9.58C18.71 9.58 19.27 9.02 19.27 8.33C19.27 7.64 18.71 7.08 18.02 7.08Z" fill="#FFFFFF"/>
<path d="M9.95 6.51001C7.2 8.26001 6.83 11.44 6.97 14.39C6.97 14.46 6.98 14.52 6.99 14.56C7.29 14.52 7.58 14.48 7.87 14.44C7.91 14.39 7.93 14.33 7.94 14.27C7.98 13.93 8.03 13.6 8.09 13.27C8.15 12.91 8.19 12.56 8.23 12.21C8.24 12.11 8.25 12 8.27 11.9C8.34 11.3 8.5 10.72 8.73 10.16C8.89 9.77001 9.29 9.07001 9.74 8.97001C9.75 8.97001 9.76 8.97001 9.77 8.98001C9.77 8.99001 9.77 9.00001 9.77 9.01001C9.47 9.18001 9.27 9.54001 9.14 9.85001C8.83 10.62 8.66 11.42 8.65 12.25C8.64 13.05 8.99 13.67 9.66 14.11C9.73 14.15 9.8 14.2 9.87 14.24C9.92 14.27 9.98 14.3 10.03 14.33C10.48 14.57 10.92 14.8 10.89 15.42C10.89 15.47 10.89 15.52 10.91 15.56C11.01 15.8 11.43 15.75 11.58 15.58C11.81 15.32 11.7 14.84 11.54 14.58C11.48 14.48 11.36 14.37 11.21 14.25C10.9 14.01 10.57 13.8 10.24 13.59C10.16 13.54 10.07 13.49 9.99 13.43C9.64 13.21 9.64 12.91 9.73 12.55C9.91 11.79 10.2 11 10.48 10.24L10.51 10.17C10.65 9.78001 10.74 9.55001 10.74 9.19001C10.74 8.75001 10.56 8.38001 10.11 8.29001C8.98 8.08001 7.91 9.94001 7.57 10.77C7.55 10.81 7.54 10.89 7.52 11.01C7.52 10.95 7.53 10.88 7.55 10.79C7.76 9.82001 8.18 8.92001 8.96 8.28001C9.34 7.97001 9.75 7.84001 10.21 7.89001C11.17 8.00001 11.27 9.11001 11.02 9.83001C10.76 10.6 10.49 11.38 10.23 12.16C10.23 12.16 10.23 12.17 10.24 12.17H11.54C11.54 12.17 11.56 12.15 11.56 12.14C11.39 11.09 12.21 10.15 13.13 9.77001C13.94 9.44001 14.95 9.42001 15.79 9.59001C14.86 9.64001 13.86 9.77001 13.06 10.3C11.94 11.04 11.4 12.67 12.27 13.8C12.41 13.97 12.57 14.12 12.73 14.27C13.01 14.53 13.29 14.78 13.42 15.17C13.5 15.41 13.48 15.63 13.35 15.83C13.33 15.86 13.34 15.88 13.38 15.88C13.68 15.92 13.91 15.83 14.07 15.62C14.43 15.13 13.98 14.41 13.62 14.06C13.58 14.02 13.52 13.97 13.47 13.92C13.37 13.83 13.26 13.73 13.18 13.64C12.05 12.26 13.83 10.93 14.91 10.42L14.81 10.51C14.31 11 13.8 11.49 13.43 12.09C13.43 12.1 13.43 12.11 13.43 12.11C13.93 12.15 14.3 11.93 14.7 11.7C14.8 11.64 14.9 11.58 15 11.53C15.01 11.53 15.02 11.53 15.03 11.53C15.94 12.39 17.22 13.13 18.48 13.31C19.19 13.41 19.87 13.11 20.16 12.44C20.4 11.87 20.44 11.2 20.37 10.58C20.31 10.03 20.05 9.54001 19.67 9.09001C19.67 9.08001 19.65 9.09001 19.64 9.09001C19.07 10.06 17.88 10.41 16.95 9.72001C16.02 9.03001 16.02 7.70001 16.91 6.97001C16.91 6.97001 16.91 6.96001 16.91 6.95001C14.93 5.30001 12.16 5.09001 9.97 6.48001L9.95 6.51001Z" fill="#FFFFFF"/>
<path d="M2.99 16.36C2.85 18.49 4.8 20.09 6.84 19.34C7.85 18.97 8.47 18.07 8.64 17.03C8.69 16.73 8.64 16.43 8.52 16.12C8.48 16.01 8.41 16.02 8.33 16.03C8.32 16.03 8.31 16.03 8.3 16.03C8.03 16.06 7.75 16.1 7.48 16.14C7.47 16.14 7.46 16.14 7.47 16.16C7.72 16.84 7.26 17.72 6.68 18.08C6.28 18.33 5.77 18.41 5.33 18.26C4.37 17.93 4.1 17.18 3.98 16.25C3.98 16.24 3.98 16.23 4 16.23C6.12 15.87 8.25 15.63 10.4 15.5C10.47 15.5 10.51 15.47 10.52 15.42C10.6 15.16 10.45 14.93 10.25 14.77C10.11 14.66 9.94 14.62 9.74 14.64C8.26 14.79 6.79 15 5.32 15.24C3.67 15.52 2.26 15.79 0.799997 16.32C0.529997 16.42 0.299997 16.54 0.0799966 16.68C-0.0300034 16.76 -0.0200034 16.79 0.109997 16.77C1.07 16.67 2.03 16.53 2.97 16.34C2.98 16.34 2.99 16.34 2.99 16.36Z" fill="#FFFFFF"/>
<path d="M20.79 16.03C21.78 16.16 22.76 16.32 23.75 16.51C21.91 15.65 19.93 15.17 17.94 14.83C17.82 14.81 17.69 14.79 17.57 14.77C17.59 14.86 17.59 14.96 17.6 15.04V15.11C17.63 15.31 17.64 15.47 17.56 15.68C18.64 15.76 19.72 15.87 20.79 16.02V16.03Z" fill="#FFFFFF"/>
<path d="M19.72 7.05C19.52 7.05 19.35 7.05 19.22 7.07C19.2 7.07 19.2 7.07 19.22 7.09C19.57 7.43 19.83 7.88 19.79 8.38C19.79 8.45 19.76 8.59 19.72 8.79C19.72 8.8 19.72 8.82 19.72 8.83C19.83 8.97 20.1 9.29 20.32 9.17C20.7 8.97 20.87 8.57 20.87 8.16C20.87 7.5 20.36 7.06 19.72 7.05Z" fill="#FFFFFF"/>
<path d="M22.28 5.41L13.59 0.400002C12.67 -0.129998 11.53 -0.129998 10.61 0.400002L1.91 5.41C0.989998 5.94 0.419998 6.93 0.419998 7.98V15.35H0.429998C0.899998 15.17 1.37 15.02 1.84 14.9V7.99C1.84 7.44 2.14 6.92 2.62 6.65L11.32 1.63C11.56 1.49 11.83 1.42 12.1 1.42C12.37 1.42 12.64 1.49 12.88 1.63L21.58 6.64C22.06 6.92 22.36 7.43 22.36 7.98V14.84C22.86 15.01 23.33 15.19 23.78 15.39V7.99C23.78 6.93 23.21 5.95 22.29 5.42L22.28 5.41Z" fill="#FFFFFF"/>
<path d="M23.55 17.53C23.17 17.45 22.77 17.38 22.35 17.31V18.02C22.35 18.57 22.05 19.09 21.57 19.36L12.87 24.37C12.39 24.65 11.8 24.65 11.32 24.37L2.62 19.36C2.14 19.08 1.84 18.57 1.84 18.02V17.6C1.37 17.67 0.889998 17.73 0.419998 17.79V18.03C0.419998 19.09 0.989998 20.07 1.91 20.6L10.61 25.61C11.07 25.87 11.58 26.01 12.1 26.01C12.62 26.01 13.13 25.88 13.59 25.61L22.29 20.6C23.21 20.07 23.78 19.08 23.78 18.03V17.56H23.76C23.69 17.56 23.62 17.56 23.55 17.54V17.53Z" fill="#FFFFFF"/>
<path d="M16.64 16.3C16.64 16.3 16.69 16.37 16.72 16.34C16.93 16.13 17.09 15.9 17.2 15.63C17.28 15.45 17.27 15.35 17.25 15.15V15.08C17.23 14.82 17.2 14.5 16.96 14.37C16.89 14.33 16.75 14.32 16.61 14.31C16.45 14.31 16.29 14.29 16.25 14.23C15.99 13.83 15.85 13.39 15.83 12.91C15.83 12.82 15.79 12.8 15.73 12.75C15.49 12.56 15.25 12.39 14.99 12.22C14.99 12.22 14.97 12.22 14.97 12.23C15.03 13.11 15.36 14.04 16.01 14.66C16.02 14.67 16.01 14.7 15.99 14.69C15.88 14.66 15.77 14.64 15.64 14.63C15.19 14.6 14.75 14.55 14.3 14.49C14.3 14.49 14.29 14.49 14.29 14.5C14.44 14.81 14.51 15.14 14.48 15.48C14.48 15.49 14.48 15.5 14.5 15.5C15.03 15.56 15.56 15.58 16.1 15.6C16.24 15.6 16.38 15.61 16.53 15.62C16.7 15.62 16.66 16.13 16.66 16.27V16.29L16.64 16.3Z" fill="#FFFFFF"/>
<path d="M12.01 15.42C12.37 15.4 12.67 15.42 12.96 15.44C12.98 15.44 12.99 15.44 12.99 15.42C13.05 14.86 12.55 14.45 12.03 14.46C11.99 14.46 11.96 14.5 11.97 14.54C12.05 14.82 12.06 15.11 12 15.4C12 15.41 12 15.42 12.02 15.42H12.01Z" fill="#FFFFFF"/>
</g>
<defs>
<clipPath id="clip0_428_6013">
<rect width="106.79" height="26" fill="white"/>
</clipPath>
</defs>
</svg>
