<svg width="94" height="26" viewBox="0 0 94 26" fill="none" xmlns="http://www.w3.org/2000/svg">
<path d="M41.3337 1.36235V14.4725C41.3337 15.4107 41.0487 16.1612 40.4788 16.7323C39.909 17.3033 39.1518 17.5889 38.2237 17.5889C37.2956 17.5889 36.5384 17.3033 35.9685 16.7323C35.3986 16.1612 35.1137 15.4025 35.1137 14.4725V1.36235H27.9493V14.4725C27.9493 15.8838 28.1935 17.181 28.682 18.3639C29.1705 19.5387 29.8625 20.5584 30.7581 21.4232C31.6455 22.288 32.7283 22.9569 33.9983 23.4383C35.2684 23.9196 36.6768 24.1562 38.24 24.1562C39.8031 24.1562 41.2116 23.9196 42.4816 23.4383C43.7517 22.9569 44.8263 22.288 45.7219 21.4232C46.6174 20.5584 47.3094 19.5387 47.7979 18.3639C48.2864 17.1891 48.5306 15.892 48.5306 14.4725V1.36235H41.35H41.3337Z" fill="#FFFFFF"/>
<path d="M59.3016 16.7404C58.8375 16.2754 58.5607 15.688 58.4712 14.9864C58.4549 14.8233 58.4467 14.6519 58.4467 14.4806V1.36235H51.2823V14.4725C51.2823 14.758 51.2905 15.0354 51.3149 15.3128C51.3882 16.4059 51.6243 17.4257 52.0151 18.3639C52.5035 19.5387 53.1956 20.5584 54.0911 21.4232C54.9785 22.288 56.0613 22.9569 57.3314 23.4383C58.6014 23.9196 60.0099 24.1562 61.5649 24.1562H69.0793V17.597H61.5649C60.6368 17.597 59.8796 17.3115 59.3097 16.7404H59.3016Z" fill="#FFFFFF"/>
<path d="M93.0149 7.80735C92.3636 6.38783 91.4762 5.12332 90.3445 4.03013C89.2129 2.93694 87.8858 2.06402 86.3716 1.40322C84.8491 0.750565 83.2697 0.42424 81.5437 0.42424C79.8178 0.42424 78.1976 0.750565 76.6996 1.40322C75.1935 2.06402 73.8746 2.93694 72.7429 4.03013C71.6113 5.12332 70.7157 6.37968 70.0644 7.80735C69.4131 9.23502 69.0875 10.728 69.0875 12.2943C69.0875 13.8607 69.4131 15.3536 70.0644 16.7895C70.7157 18.2253 71.6113 19.4898 72.7429 20.583C73.8746 21.6843 75.1935 22.5491 76.6996 23.1936C78.2058 23.8381 79.8422 24.1562 81.5437 24.1562C83.2453 24.1562 84.8573 23.8381 86.3716 23.1936C87.8858 22.5491 89.2129 21.6843 90.3445 20.583C91.4762 19.4898 92.3636 18.2253 93.0149 16.7895C93.6743 15.3536 94 13.8607 94 12.2943C94 10.728 93.6743 9.23502 93.0149 7.80735ZM85.2318 15.99C84.7433 16.4794 84.1815 16.871 83.5546 17.1647C82.9196 17.4503 82.252 17.5971 81.5437 17.5971C80.8354 17.5971 80.1597 17.4503 79.5328 17.1647C78.8978 16.871 78.3361 16.4794 77.8476 15.99C77.3591 15.5005 76.9764 14.9376 76.6834 14.3094C76.3903 13.6649 76.2437 12.9959 76.2437 12.2943C76.2437 11.5927 76.3903 10.9074 76.6834 10.2793C76.9764 9.64293 77.3591 9.08002 77.8476 8.59053C78.3442 8.10104 78.8978 7.70945 79.5328 7.42392C80.1679 7.13022 80.8354 6.98338 81.5437 6.98338C82.252 6.98338 82.9196 7.13022 83.5546 7.42392C84.1897 7.70945 84.7514 8.10104 85.2318 8.59053C85.7203 9.08818 86.111 9.64293 86.4041 10.2793C86.6972 10.9156 86.8356 11.5846 86.8356 12.2943C86.8356 13.0041 86.6972 13.673 86.4041 14.3094C86.111 14.9457 85.7203 15.5086 85.2318 15.99Z" fill="#FFFFFF"/>
<path d="M12.9936 16.3734C13.8973 16.3734 14.7358 16.0307 15.3709 15.3944C16.0059 14.7581 16.3478 13.9178 16.3478 13.0122C16.3478 12.1067 15.9978 11.2745 15.3627 10.63L4.73827 0C2.83319 1.22372 1.2212 2.83903 0 4.74803L10.6163 15.3862C11.2513 16.0226 12.098 16.3734 12.9936 16.3734Z" fill="#FFFFFF"/>
<path d="M24.2938 18.4129C24.3996 18.2008 24.4891 17.9724 24.5868 17.7521C24.5868 17.7521 24.5868 17.744 24.5868 17.7358C24.6764 17.5155 24.7578 17.2953 24.8311 17.075C24.9451 16.7568 25.0346 16.4305 25.116 16.1042C25.1567 15.941 25.2056 15.7779 25.2381 15.5984C25.2707 15.4515 25.2951 15.3047 25.3277 15.1497V15.0436C25.3684 14.8886 25.3847 14.7336 25.4091 14.5786C25.4335 14.4073 25.4498 14.236 25.4661 14.0565C25.4824 13.877 25.4905 13.7138 25.4987 13.5344C25.4987 13.3549 25.5068 13.1754 25.5068 13.0041C25.5068 12.5962 25.4824 12.1964 25.4498 11.8048C25.4417 11.7069 25.4254 11.6172 25.4173 11.5275C25.401 11.3806 25.3847 11.2419 25.3603 11.1032C25.3358 10.9319 25.3114 10.7688 25.2707 10.6138C25.2463 10.4588 25.2137 10.3037 25.173 10.1569C25.116 9.88768 25.0509 9.62662 24.9695 9.36556C24.9206 9.19424 24.8636 9.02292 24.7985 8.8516C24.6601 8.46817 24.5217 8.0929 24.3426 7.72578C24.2693 7.57078 24.2042 7.42393 24.1309 7.27708C24.0577 7.13024 23.9762 6.99155 23.903 6.85286C23.846 6.7468 23.789 6.64075 23.7239 6.53469C23.6262 6.37153 23.5285 6.20837 23.4145 6.0452C23.3086 5.8902 23.2028 5.7352 23.0888 5.58019C22.9667 5.40887 22.8364 5.23755 22.698 5.07439C22.5596 4.91122 22.4294 4.74806 22.2828 4.5849C22.006 4.26673 21.6967 3.95672 21.3791 3.67935C21.2163 3.5325 21.0616 3.40197 20.8907 3.26328C20.7278 3.12459 20.5569 3.00222 20.3859 2.87169C20.2312 2.74932 20.0684 2.64326 19.8974 2.52905C19.8649 2.50457 19.8323 2.4801 19.7916 2.45563C19.6369 2.35773 19.4985 2.26799 19.3438 2.17825C19.1728 2.08035 19.0019 1.98245 18.8309 1.88456C18.8065 1.86824 18.7902 1.86008 18.7576 1.85192C18.2366 1.57455 17.683 1.33796 17.1212 1.14217C16.934 1.06874 16.7386 1.01164 16.5432 0.954529C16.3478 0.897422 16.1524 0.840315 15.9652 0.799525C15.7698 0.758734 15.5662 0.709785 15.3708 0.668995C14.5974 0.51399 13.7996 0.440567 12.9854 0.440567C12.6191 0.440567 12.2608 0.456883 11.9026 0.481358C11.7886 0.489516 11.6828 0.505832 11.5688 0.51399C11.2432 0.554781 10.9094 0.60373 10.5919 0.668995C10.4209 0.701627 10.2581 0.73426 10.1034 0.77505C9.86728 0.832157 9.63932 0.889264 9.41137 0.962687C9.24854 1.00348 9.09385 1.06059 8.93103 1.11769L16.877 9.08003C17.8702 10.0753 18.4971 11.4622 18.4971 12.9878C18.4971 13.2325 18.4808 13.4691 18.4483 13.7138C18.2936 14.9213 17.7562 16.0308 16.8851 16.8955C16.014 17.7603 14.9068 18.3069 13.71 18.47C13.4739 18.5027 13.2378 18.519 12.9854 18.519C11.463 18.519 10.0871 17.899 9.08571 16.8955L1.1479 8.95766C1.03392 9.27582 0.944362 9.60215 0.854808 9.92848C0.830383 10.0427 0.797818 10.1406 0.781535 10.2548C0.757111 10.3527 0.740829 10.4506 0.716405 10.5567C0.691981 10.679 0.659415 10.8096 0.643133 10.9401C0.610567 11.1114 0.586143 11.2746 0.56986 11.4459C0.545436 11.6172 0.529154 11.7885 0.512871 11.968C0.496588 12.1475 0.488447 12.3106 0.480305 12.4901C0.480305 12.6696 0.472164 12.8491 0.472164 13.0204C0.472164 13.4609 0.496588 13.8852 0.537295 14.3094C0.561719 14.5133 0.586143 14.7255 0.618708 14.9294C0.724546 15.6147 0.879232 16.2755 1.09091 16.92C1.13161 17.0587 1.18046 17.1974 1.23745 17.3279C1.32701 17.5726 1.4247 17.8092 1.5224 18.0377C1.57939 18.1763 1.64452 18.315 1.70965 18.4537C1.7992 18.6332 1.88876 18.8127 1.98646 18.9922C2.08415 19.1716 2.18185 19.343 2.28769 19.5143C2.39352 19.6938 2.49936 19.8569 2.61334 20.0282C2.72732 20.1914 2.8413 20.3546 2.96342 20.5177C3.05297 20.6401 3.14253 20.7625 3.24022 20.8767C3.32978 20.9991 3.42747 21.1133 3.53331 21.2275C3.55774 21.2601 3.5903 21.3009 3.62287 21.3254L3.67986 21.3825C3.83454 21.562 3.98923 21.7251 4.15205 21.8965C4.17648 21.9209 4.2009 21.9372 4.22533 21.9536C4.24975 21.978 4.26603 21.9944 4.2986 22.0188C4.42886 22.1494 4.55912 22.2636 4.69752 22.3778C4.84407 22.5083 4.98247 22.6388 5.13716 22.7612C5.25928 22.8673 5.38954 22.9652 5.5198 23.0631C5.68263 23.1854 5.84545 23.3078 6.00828 23.4139C6.34208 23.6341 6.68401 23.8544 7.04223 24.042C7.22134 24.1399 7.40045 24.2297 7.57956 24.3194C7.76681 24.4092 7.95406 24.4907 8.13317 24.5723C8.31228 24.6539 8.49139 24.7273 8.68679 24.7926H8.71121C8.89846 24.866 9.09385 24.9313 9.2811 24.9884C9.4765 25.0455 9.68003 25.1026 9.87542 25.1597C10.0464 25.2005 10.2174 25.2494 10.3965 25.2821C10.4697 25.2984 10.5512 25.3066 10.6163 25.3229C10.9826 25.3963 11.349 25.4452 11.7235 25.486C11.9677 25.5105 12.2283 25.5268 12.4725 25.535C12.5946 25.535 12.7168 25.535 12.8389 25.535H13.0017C13.71 25.535 14.4102 25.4779 15.0859 25.3637C15.2569 25.331 15.4197 25.3066 15.5906 25.2658C15.8837 25.2087 16.185 25.1271 16.4699 25.0455C16.6653 24.9884 16.8688 24.9231 17.0642 24.866C17.2922 24.7926 17.5201 24.7029 17.74 24.6131C18.2284 24.4173 18.7006 24.1889 19.1647 23.9197L21.2407 26C23.1458 24.7763 24.7741 23.1691 25.979 21.252L23.903 19.1716C24.0495 18.9187 24.1798 18.6577 24.3019 18.3966V18.4129H24.2938Z" fill="#FFFFFF"/>
</svg>
